<?xml version="1.0" encoding="UTF-8"?>
<svg id="Capa_1" data-name="Capa 1" xmlns="http://www.w3.org/2000/svg" viewBox="0 0 356.81 508.87">
  <defs>
    <style>
      .cls-1 {
        fill: #018ed6;
      }

      .cls-2 {
        fill: #fcc01a;
      }

      .cls-3 {
        fill: #eb1b69;
      }

      .cls-4 {
        fill: #fec013;
      }
    </style>
  </defs>
  <g>
    <path class="cls-4" d="M140.03,71.93c-.21,1.5-.1,3.08,.35,4.75,3.87,14.42-17.6,16.52-16.4,2.44,.23-2.73,1.08-5.09,2.53-7.08,.93-1.28,.61-1.91-.98-1.9l-13.91,.13c-1.69,.01-2.54-.82-2.55-2.51l-.06-14.01c0-.29,.23-.52,.51-.53,4.38-.22,7.85,2.12,11.35,2.01,4.8-.16,8-4.73,6.33-9.26-2.48-6.77-9.54-4.41-14.77-3.69-.81,.11-1.56-.46-1.66-1.27-.02-.12-.02-.23,0-.35,.54-5.12,1.7-10.09,3.47-14.91,.55-1.49,1.56-1.92,3.02-1.29,4.19,1.83,8.53,3.16,13,4.01,.47,.09,.93-.22,1.02-.69,.02-.11,.02-.21,0-.32-.58-3.22-1.62-6.96-.74-9.96,1.43-4.85,6.12-7.55,11.02-6,7.93,2.51,5.9,10.89,3.15,16.47-.81,1.65-.3,2.42,1.53,2.32,3.96-.22,8.13-.47,12.01-1.19,2-.37,3.12,.47,3.37,2.53,.56,4.67,.66,9.64,.29,14.89-.02,.29-.24,.54-.54,.6-3.45,.68-7.22-1.87-10.6-2.83-.31-.08-.65-.08-.96,.02-4.1,1.38-7.66,5.17-5.74,9.75,2.78,6.64,9.86,4.41,15.49,3.96,.37-.03,.7,.25,.74,.63,0,.03,0,.07,0,.1-.35,5.43-1.56,10.67-3.63,15.7-.29,.7-1.05,1.07-1.78,.88l-14.24-3.81c-.26-.07-.53,.09-.6,.36,0,.02,0,.03-.01,.05Z"/>
    <path class="cls-1" d="M208.94,77.89c1.25-.59,1.48-1.46,.68-2.59-3.53-4.99-7.58-9.53-12.16-13.61-.22-.19-.24-.52-.05-.74,0,0,0,0,0,0,4.33-4.73,9.06-9.01,14.18-12.85,.55-.41,1.33-.3,1.74,.25,.02,.03,.04,.05,.05,.08,3.72,5.81,1.48,14.47,11.01,14.94,6.82,.34,11.26-4.82,10.07-11.65-.29-1.65-1.05-3.05-2.29-4.18l-7.13-6.51c-.45-.42-.48-1.12-.06-1.57,.1-.11,.23-.2,.36-.26l16.52-7.3c1.19-.53,1.99-.17,2.4,1.06,1.93,5.86,4.35,11.51,7.26,16.96,.23,.43,.76,.59,1.18,.36,.07-.04,.14-.09,.2-.14,3.03-2.94,6.85-8.21,10.32-9.51,6.52-2.44,13.77,4.18,12.38,11.01-1.4,6.86-8.96,7.91-14.58,9.74-1.45,.47-1.7,1.3-.75,2.49,3.89,4.85,8.11,9.39,12.66,13.61,.21,.2,.22,.54,.02,.76-4.33,4.45-8.93,8.57-13.82,12.38-1.4,1.09-2.37,.79-2.9-.9-1.16-3.68-1.89-8.56-4.58-11.3-7.76-7.89-20.62,1.89-14.72,11.56,1.62,2.67,4.88,5.1,7.48,7.37,1.21,1.07,1.11,1.99-.31,2.76-5.45,2.96-11.11,5.37-17,7.24-.27,.08-.55-.05-.66-.31l-6.97-16.92c-.65-1.58-1.57-1.76-2.77-.55-1.85,1.87-3.7,3.78-5.53,5.73-10.28,10.95-23.43-5.82-12.95-13.59,2.87-2.13,7.15-2.12,10.71-3.81Z"/>
    <circle class="cls-1" cx="73.07" cy="67.42" r="11.07"/>
    <circle class="cls-1" cx="205.12" cy="11.06" r="11.06"/>
    <path class="cls-3" d="M79.42,141.49c-1.04-3.37-4.64-4.75-7.72-5.92-1.45-.55-1.72-1.44-.79-2.69,3.63-4.91,6.84-10.06,9.65-15.46,.61-1.17,1.48-1.41,2.61-.72l14.43,8.93c.46,.28,1.05,.14,1.34-.32,.03-.06,.06-.11,.08-.17,1.08-2.9,2.42-5.7,4.02-8.41,3.21-5.42,11.63-4.23,14.73,.4,5.57,8.34-3.21,13.32-8.85,16.88-.5,.31-.64,.97-.33,1.46,.04,.06,.09,.12,.14,.18,4.03,4.08,7.67,8.5,10.9,13.27,.49,.72,.3,1.7-.41,2.19,0,0-.01,0-.02,.01-5.15,3.45-9.89,7.38-14.21,11.81-.54,.55-1.43,.56-1.98,.02-.1-.09-.18-.2-.25-.32-1.54-2.79-3.32-6.17-6.57-6.98-5.61-1.39-9.71,4.89-6.27,9.62,1.46,2.01,4.65,2.99,7.01,4.2,.71,.36,.99,1.23,.63,1.94-.04,.07-.08,.14-.13,.2-3.57,4.81-6.73,9.89-9.47,15.24-.64,1.25-1.58,1.55-2.83,.9-14.71-7.69-26.86-18.3-36.45-31.83-.54-.76-.36-1.81,.4-2.34,0,0,0,0,.01,0,5.12-3.57,9.92-7.53,14.39-11.88,.37-.36,.95-.37,1.33-.03,2.63,2.31,3.74,7.04,7.62,7.5,4.78,.56,8.45-2.92,6.99-7.67Z"/>
    <circle class="cls-3" cx="26.2" cy="131.3" r="10.52"/>
    <circle class="cls-4" cx="155.44" cy="114.96" r="9.8" transform="translate(17.07 249.97) rotate(-80.78)"/>
    <circle class="cls-1" cx="343.71" cy="118.2" r="13.1"/>
    <path class="cls-2" d="M159.14,235.04c-15.46-12.17-5.37-36.36,15.1-30.01,3.87,1.2,7.55,2.88,11.02,5.04,21.53,13.4,56.94,30.21,77.54,5.8,17.82-21.13,11.32-55.7,3.99-79.38-2.64-8.53,.34-20.14,9.61-23.53,13.28-4.83,20.46,8.84,24.87,18.53,5.75,12.65,10.03,25.79,12.84,39.44,19.84,96.29-27.94,208.04-123.52,244.23-2.83,1.07-5.6,1.96-8.31,2.68-.86,.23-1.07-.05-.64-.82,32.12-57.2,61.18-141.42-18.21-179.32-1.53-.73-2.96-1.61-4.29-2.66Z"/>
    <circle class="cls-2" cx="222.8" cy="173.08" r="35.22"/>
    <circle class="cls-3" cx="343.71" cy="186.52" r="9.25"/>
    <circle class="cls-1" cx="145.82" cy="176.26" r="10.26"/>
    <circle class="cls-3" cx="103.26" cy="250.56" r="37.39"/>
    <path class="cls-3" d="M41.31,269.05c17.95,51.01,71.5,67.64,113.99,30.79,4.62-4.01,10.63-10.64,15.88-13.99,6.18-3.94,16.22-7.09,23.04-2.44,7.63,5.21,9.44,12.56,5.43,22.05-3.45,8.18-9.55,13.26-17.55,20.44-46.67,41.87-6.75,94.63,25.84,126.57,.26,.25,.26,.67,0,.94-.05,.05-.1,.09-.16,.12-.2,.11-.53,.17-.99,.18-75.02,3-147.89-42.92-182.53-108.32C7.68,314.08-.4,280.42,.02,244.42c.23-19.87,22.92-25.36,32.24-7.95,1,1.87,2.06,5.61,3.19,11.23,1.45,7.23,3.4,14.35,5.86,21.35Z"/>
  </g>
  <ellipse class="cls-3" cx="84.42" cy="508.36" rx=".5" ry="2.04" transform="translate(-426.46 575.88) rotate(-88.1)"/>
</svg>