<?xml version="1.0" encoding="UTF-8"?>
<svg id="Capa_1" data-name="Capa 1" xmlns="http://www.w3.org/2000/svg" viewBox="0 0 259.32 330.13">
  <defs>
    <style>
      .cls-1 {
        fill: #fff;
      }

      .cls-2 {
        stroke: #ffa7a8;
      }

      .cls-2, .cls-3, .cls-4, .cls-5, .cls-6, .cls-7, .cls-8, .cls-9, .cls-10, .cls-11 {
        fill: none;
        stroke-width: 2px;
      }

      .cls-3 {
        stroke: #80daef;
      }

      .cls-4 {
        stroke: #80e1d5;
      }

      .cls-12 {
        fill: #ffd300;
      }

      .cls-5 {
        stroke: #00bcc5;
      }

      .cls-13 {
        fill: #ff4f51;
      }

      .cls-6 {
        stroke: #ffe980;
      }

      .cls-7 {
        stroke: #80cb55;
      }

      .cls-8 {
        stroke: #808298;
      }

      .cls-9 {
        stroke: #80c470;
      }

      .cls-14 {
        fill: #21abde;
      }

      .cls-15 {
        fill: #00c2aa;
      }

      .cls-10 {
        stroke: #80897e;
      }

      .cls-11 {
        stroke: #c9edff;
      }

      .cls-16 {
        fill: #00b5df;
      }
    </style>
  </defs>
  <g>
    <path class="cls-11" d="M161.17,165.38c29.24-13.9,55.67-43.96,52.62-78.77-2.97-33.88-28.81-55.68-61.09-61.41-31.02-5.51-60.41-.88-88.17,13.91-25.46,13.56-46.2,36.43-47.32,66.45-1.43,38.53,29.95,65.81,65.7,71.78,.36,.06,.62,.39,.57,.75-.62,5.15-1.14,10.41-1.56,15.78-.85,11.01,11.11,17.75,19.58,10.22,6.59-5.86,10.5-15.13,17.28-20.8,11.71-9.79,28.74-11.42,42.39-17.91" vector-effect="non-scaling-stroke"/>
    <path class="cls-2" d="M100.99,34.84C61.71,43.01,17.77,73.97,27.12,120.26c.31,1.52,.79,2.96,1.45,4.33" vector-effect="non-scaling-stroke"/>
    <path class="cls-4" d="M28.57,124.59c2.91,9.93,8.23,18.35,15.98,25.25,14.51,12.93,29.67,17.4,48.57,20.22,.29,.05,.5,.31,.46,.6l-2.66,25.55c-.13,1.29,.44,2.07,1.71,2.32,1.27,.25,2.27-.12,3-1.11,8.22-11.02,15.62-22.92,28.73-28.22,5.18-2.09,8.5-3.46,9.96-4.11" vector-effect="non-scaling-stroke"/>
    <path class="cls-6" d="M134.32,165.09c8.74-2.45,15.41-4.68,20.01-6.68,28.41-12.32,52.53-38.78,50.95-71.29-.01-.26-.18-.7-.5-1.32" vector-effect="non-scaling-stroke"/>
    <path class="cls-3" d="M204.78,85.8c.23-.26,.32-.5,.28-.73-7.59-50.06-63.46-59.71-104.07-50.23" vector-effect="non-scaling-stroke"/>
    <path class="cls-9" d="M204.78,85.8c-4.87,.34-27.95,2.24-30.51,5.59-4.5,5.87,1.95,10.48,5.48,14.14,10.44,10.81-9.34,15.09-16.41,15.36-4.57,.18-7.62-1.74-9.16-5.76-.41-1.06-.36-2.1,.13-3.13,1.99-4.08,5.99-9.9,3.25-14.27-2.86-4.56-11.83-1.66-15.79-.41-7.36,2.32-14.86,4.97-22.49,7.95" vector-effect="non-scaling-stroke"/>
    <path class="cls-5" d="M119.28,105.27c-.06-.21-.21-.43-.46-.68" vector-effect="non-scaling-stroke"/>
    <path class="cls-8" d="M118.82,104.59c-3.49-8.95-6.51-18.06-9.07-27.31-1.18-4.28-2.8-10.09,1.93-12.1,3.56-1.52,7.89,.86,10.93,2.94,1.05,.72,2.22,1.05,3.49,.98,5.01-.28,7.65-2.95,7.91-8.02,.34-6.55-1.89-16.99-8.33-20.99-.28-.18-.6-.26-.93-.25-7.56,.31-9.12,9.22-15.2,10.35-7.28,1.36-8.04-10.58-8.56-15.35" vector-effect="non-scaling-stroke"/>
    <path class="cls-10" d="M118.82,104.59c-.07,.69-.39,1.13-.96,1.33-10.15,3.63-20.46,6.69-30.93,9.2-4.95,1.18-8.89,1.48-10.46-4.08-.37-1.32-.31-2.62,.19-3.9,1.34-3.46,3.78-7.96,3.44-11.36-.9-9.05-19.69-4.86-24.27-1.84-2.58,1.71-3.73,4.32-3.45,7.84,.27,3.37,3.4,5.52,6.01,7.27,1.51,1.01,2.64,2.36,3.38,4.03,3.24,7.33-7.23,9.21-11.74,9.78-7.12,.9-14.27,1.48-21.46,1.73" vector-effect="non-scaling-stroke"/>
    <path class="cls-7" d="M134.32,165.09c-1.95-4.3-5.12-5.39-9.51-3.26-2.5,1.22-4.98,6.75-8.26,8.35-11.44,5.56-14.88-18.14-12.08-23.93,4.81-9.96,17.46,6.56,23.41-1.64,2.06-2.85,.75-7.55-.1-10.77-2.33-8.91-5.16-18.44-8.5-28.57" vector-effect="non-scaling-stroke"/>
  </g>
  <path class="cls-14" d="M46.85,27.47c.61-.07,1.99-.37,2.48-.71C89.84-2.1,141.79-9.59,186.35,14.06c4.21,2.23,9.04,5.34,13.24,6.42,13,3.35,20.39-3.52,29.99-10.57,.13-.1,.32-.07,.42,.06,.03,.04,.05,.09,.05,.14,1.06,8.83-2.1,15.89-9.48,21.2-.95,.68-1.14,1.52-.59,2.52,.14,.25,.39,.4,.67,.4l21.14,.42c.61,0,1.09,.51,1.08,1.13,0,.19-.05,.37-.15,.53-3.5,6.11-8.81,9.71-15.92,10.81-.68,.11-1.14,.74-1.04,1.41,.03,.18,.1,.35,.2,.5,7.65,11.19,12.04,23.43,13.19,36.72,.59,6.91,1.31,15.57,.49,22.65-.79,6.84-1.31,12.14-1.58,15.9-.54,7.74,11.39,17.38,16.45,22.32,3.69,3.59,7.25,7.32,2.6,11.08-4.07,3.29-8.42,6.18-13.05,8.67-.25,.14-.36,.44-.26,.71l6.24,16.73c.34,.91,0,1.94-.84,2.45l-5.46,3.33c-1.39,.85-1.54,1.89-.46,3.11,4.39,4.95,3.89,9.5-1.51,13.63-2.46,1.89-4.25,2.78-5.06,5.94-.9,3.55-1.39,6.74-1.46,9.57-.33,12.17-5.85,26.28-20.34,26.3-1.48,0-4.99-.67-10.52-2.02-8.26-2.01-22.87-4.59-28.94,2.04-5.04,5.52-5.22,13.8,.14,19.25,8.31,8.45,14.75,17.17,18.22,28.65,.87,2.91,.05,4.83-2.78,5.71-.31,.1-.65,.1-.97,0-2.79-.89-7.72-2.19-14.79-3.91-4.66-1.13-7.13,.57-7.36,5.39-.36,7.71-.73,15.41-1.12,23.08-.1,1.95-1.27,3.04-3.5,3.26-24.47,2.39-50.58-3.35-72.72-13.28-8.14-3.65-27.43-12.8-27.67-21.68-.03-1.07,.15-2.58,.53-4.55,2.31-11.82,5.45-22.22,9.4-31.19,.85-1.94,2.56-3.22,5.11-3.83,.33-.07,.56-.38,.54-.72l-1.27-21.51c-.03-.61-.51-1.11-1.12-1.19-.6-.07-1.84,.55-2.35,1.06-4.39,4.42-14.92,9.47-17.15-.55-.08-.35-.02-.71,.17-1.02,.51-.83,.68-1.76,.49-2.79-.06-.33-.37-.57-.7-.53-4.35,.5-15.75-1.04-12.32-7.71,1.18-2.28,3.98-4.45,6.13-6.28,1.07-.91,1.04-1.79-.11-2.62C9.87,182.08-10.02,132.63,5.01,84.1c1.18-3.81,2.42-7.51,3.73-11.12,.12-.32-.05-.68-.37-.79-.02,0-.04-.01-.06-.02-4.84-1.22-7.68-4.91-6.06-9.98,2.36-7.36,9.23-12.56,16.56-14.01,2.02-.4,3.7-.81,5.04-1.22,.28-.08,.47-.35,.45-.65-.39-5.97,.79-12.19,3.56-18.67,2.11-4.95,6.86-12.92,13.01-12.34,5.66,.53,5.5,6.45,5.48,11.73,0,.24,.19,.44,.44,.44,.02,0,.04,0,.06,0Zm114.32,137.91c29.24-13.9,55.67-43.96,52.62-78.77-2.97-33.88-28.81-55.68-61.09-61.41-31.02-5.51-60.41-.88-88.17,13.91-25.46,13.56-46.2,36.43-47.32,66.45-1.43,38.53,29.95,65.81,65.7,71.78,.36,.06,.62,.39,.57,.75-.62,5.15-1.14,10.41-1.56,15.78-.85,11.01,11.11,17.75,19.58,10.22,6.59-5.86,10.5-15.13,17.28-20.8,11.71-9.79,28.74-11.42,42.39-17.91Z"/>
  <path class="cls-1" d="M213.79,86.61c3.05,34.81-23.38,64.87-52.62,78.77-13.65,6.49-30.68,8.12-42.39,17.91-6.78,5.67-10.69,14.94-17.28,20.8-8.47,7.53-20.43,.79-19.58-10.22,.42-5.37,.94-10.63,1.56-15.78,.05-.36-.21-.69-.57-.75-35.75-5.97-67.13-33.25-65.7-71.78,1.12-30.02,21.86-52.89,47.32-66.45,27.76-14.79,57.15-19.42,88.17-13.91,32.28,5.73,58.12,27.53,61.09,61.41ZM100.99,34.84C61.71,43.01,17.77,73.97,27.12,120.26c.31,1.52,.79,2.96,1.45,4.33,2.91,9.93,8.23,18.35,15.98,25.25,14.51,12.93,29.67,17.4,48.57,20.22,.29,.05,.5,.31,.46,.6l-2.66,25.55c-.13,1.29,.44,2.07,1.71,2.32,1.27,.25,2.27-.12,3-1.11,8.22-11.02,15.62-22.92,28.73-28.22,5.18-2.09,8.5-3.46,9.96-4.11,8.74-2.45,15.41-4.68,20.01-6.68,28.41-12.32,52.53-38.78,50.95-71.29-.01-.26-.18-.7-.5-1.32,.23-.26,.32-.5,.28-.73-7.59-50.06-63.46-59.71-104.07-50.23Z"/>
  <path class="cls-16" d="M204.78,85.8c-4.87,.34-27.95,2.24-30.51,5.59-4.5,5.87,1.95,10.48,5.48,14.14,10.44,10.81-9.34,15.09-16.41,15.36-4.57,.18-7.62-1.74-9.16-5.76-.41-1.06-.36-2.1,.13-3.13,1.99-4.08,5.99-9.9,3.25-14.27-2.86-4.56-11.83-1.66-15.79-.41-7.36,2.32-14.86,4.97-22.49,7.95-.06-.21-.21-.43-.46-.68-3.49-8.95-6.51-18.06-9.07-27.31-1.18-4.28-2.8-10.09,1.93-12.1,3.56-1.52,7.89,.86,10.93,2.94,1.05,.72,2.22,1.05,3.49,.98,5.01-.28,7.65-2.95,7.91-8.02,.34-6.55-1.89-16.99-8.33-20.99-.28-.18-.6-.26-.93-.25-7.56,.31-9.12,9.22-15.2,10.35-7.28,1.36-8.04-10.58-8.56-15.35,40.61-9.48,96.48,.17,104.07,50.23,.04,.23-.05,.47-.28,.73Z"/>
  <path class="cls-13" d="M100.99,34.84c.52,4.77,1.28,16.71,8.56,15.35,6.08-1.13,7.64-10.04,15.2-10.35,.33-.01,.65,.07,.93,.25,6.44,4,8.67,14.44,8.33,20.99-.26,5.07-2.9,7.74-7.91,8.02-1.27,.07-2.44-.26-3.49-.98-3.04-2.08-7.37-4.46-10.93-2.94-4.73,2.01-3.11,7.82-1.93,12.1,2.56,9.25,5.58,18.36,9.07,27.31-.07,.69-.39,1.13-.96,1.33-10.15,3.63-20.46,6.69-30.93,9.2-4.95,1.18-8.89,1.48-10.46-4.08-.37-1.32-.31-2.62,.19-3.9,1.34-3.46,3.78-7.96,3.44-11.36-.9-9.05-19.69-4.86-24.27-1.84-2.58,1.71-3.73,4.32-3.45,7.84,.27,3.37,3.4,5.52,6.01,7.27,1.51,1.01,2.64,2.36,3.38,4.03,3.24,7.33-7.23,9.21-11.74,9.78-7.12,.9-14.27,1.48-21.46,1.73-.66-1.37-1.14-2.81-1.45-4.33C17.77,73.97,61.71,43.01,100.99,34.84Z"/>
  <path class="cls-12" d="M204.78,85.8c.32,.62,.49,1.06,.5,1.32,1.58,32.51-22.54,58.97-50.95,71.29-4.6,2-11.27,4.23-20.01,6.68-1.95-4.3-5.12-5.39-9.51-3.26-2.5,1.22-4.98,6.75-8.26,8.35-11.44,5.56-14.88-18.14-12.08-23.93,4.81-9.96,17.46,6.56,23.41-1.64,2.06-2.85,.75-7.55-.1-10.77-2.33-8.91-5.16-18.44-8.5-28.57,7.63-2.98,15.13-5.63,22.49-7.95,3.96-1.25,12.93-4.15,15.79,.41,2.74,4.37-1.26,10.19-3.25,14.27-.49,1.03-.54,2.07-.13,3.13,1.54,4.02,4.59,5.94,9.16,5.76,7.07-.27,26.85-4.55,16.41-15.36-3.53-3.66-9.98-8.27-5.48-14.14,2.56-3.35,25.64-5.25,30.51-5.59Z"/>
  <path class="cls-15" d="M118.82,104.59c.25,.25,.4,.47,.46,.68,3.34,10.13,6.17,19.66,8.5,28.57,.85,3.22,2.16,7.92,.1,10.77-5.95,8.2-18.6-8.32-23.41,1.64-2.8,5.79,.64,29.49,12.08,23.93,3.28-1.6,5.76-7.13,8.26-8.35,4.39-2.13,7.56-1.04,9.51,3.26-1.46,.65-4.78,2.02-9.96,4.11-13.11,5.3-20.51,17.2-28.73,28.22-.73,.99-1.73,1.36-3,1.11-1.27-.25-1.84-1.03-1.71-2.32l2.66-25.55c.04-.29-.17-.55-.46-.6-18.9-2.82-34.06-7.29-48.57-20.22-7.75-6.9-13.07-15.32-15.98-25.25,7.19-.25,14.34-.83,21.46-1.73,4.51-.57,14.98-2.45,11.74-9.78-.74-1.67-1.87-3.02-3.38-4.03-2.61-1.75-5.74-3.9-6.01-7.27-.28-3.52,.87-6.13,3.45-7.84,4.58-3.02,23.37-7.21,24.27,1.84,.34,3.4-2.1,7.9-3.44,11.36-.5,1.28-.56,2.58-.19,3.9,1.57,5.56,5.51,5.26,10.46,4.08,10.47-2.51,20.78-5.57,30.93-9.2,.57-.2,.89-.64,.96-1.33Z"/>
</svg>