<?xml version="1.0" encoding="UTF-8"?>
<svg id="Capa_1" data-name="Capa 1" xmlns="http://www.w3.org/2000/svg" viewBox="0 0 390.55 362.43">
  <defs>
    <style>
      .cls-1 {
        fill: #fff;
      }

      .cls-2 {
        fill: #fedf4a;
      }
    </style>
  </defs>
  <path d="M372.49,109.84c-20.58-.77-57.23-1.55-109.93-2.32-7.31-.11-12.75-2.77-16.35-8-13.76-20.03-33.38-49.96-58.88-89.81-1.98-3.09-3.65-5.1-5.01-6.05-5.54-3.83-13.49-.59-15.83,5.42-15.01,38.43-27.97,71.13-38.87,98.12-3.44,8.53-5.98,12.97-15.72,15.18-36.79,8.48-126.34,7.21-109.91,27.25,4.8,12.46,83.02,67.48,91.23,73.71,4.99,3.79,6.48,8.08,6.31,14.59-.13,5.37-.38,10.72-.75,16.07-2.12,31.02-3.82,62.06-5.8,93.09-.68,10.71,8.51,16.79,18.72,15.04,1.04-.18,3.17-1.34,6.41-3.48,29.69-19.61,59.37-39.24,89.03-58.89,6.29-4.16,10.53-4.76,17.83-1.92,34.21,13.29,68.61,26.1,102.57,39.99,5.2,2.13,19.56,2.74,16.07-10.97-11.65-45.77-31.28-74.22-36.83-95.52-.54-2.06-3.75-10.05-.75-15.75,9.01-17.11,68.24-79.74,74.51-88.6,1.48-2.09,3-4.14,4.56-6.15-1.52-7.07-5.73-10.74-12.61-11Z"/>
  <path class="cls-2" d="M378.08,107.83c-20.36-.77-56.61-1.55-108.74-2.32-7.23-.11-12.62-2.77-16.17-8-13.61-20.03-33.02-49.96-58.24-89.81-1.96-3.09-3.61-5.1-4.96-6.05-5.48-3.83-13.34-.59-15.66,5.42-14.85,38.43-27.66,71.13-38.45,98.12-3.4,8.53-5.92,12.97-15.55,15.18-36.39,8.48-124.97,7.21-108.72,27.25,4.75,12.46,82.12,67.48,90.24,73.71,4.94,3.79,6.41,8.08,6.24,14.59-.13,5.37-.38,10.72-.74,16.07-2.1,31.02-3.78,62.06-5.74,93.09-.67,10.71,8.42,16.79,18.52,15.04,1.03-.18,3.14-1.34,6.34-3.48,29.37-19.61,58.72-39.24,88.07-58.89,6.22-4.16,10.42-4.76,17.64-1.92,33.84,13.29,67.87,26.1,101.46,39.99,5.14,2.13,19.35,2.74,15.89-10.97-11.52-45.77-30.95-74.22-36.43-95.52-.53-2.06-3.71-10.05-.74-15.75,8.92-17.11,67.5-79.74,73.7-88.6,1.46-2.09,2.96-4.14,4.51-6.15-1.51-7.07-5.66-10.74-12.47-11Zm-204.47,88c-1.63,.21-3.21-.67-4.01-2.1-4.5-8.05-5.54-12.78-16-13.88-9.69-1.01-14.63,4.37-18.26,12.49-1.31,2.92-.76,6.43-4.3,8.64-2.22,1.39-4.04,1.37-5.46-.06-4.37-4.4,3.98-17.63,7.05-21.25,6.8-8.01,15.8-10.64,26.99-7.87,9.25,2.28,15,9.33,17.7,18.22,.96,3.2-.42,5.38-3.7,5.81Zm51.85,17.74c-2.07,15.63-21.58,17.34-29.19,5.38-.93-1.45-.7-2.7,.68-3.73,3.75-2.81,6.1-.07,9.06,1.9,6.82,4.56,9.85-1.18,11.29-6.81,.33-1.31,1.16-2.14,2.47-2.47,4.48-1.13,6.22,1.71,5.69,5.73Zm70.37-37.58c-2.72,2.3-5.3,2.01-7.74-.89-7.23-8.61-8.43-17.65-22.56-14.26-8.84,2.11-12.43,9.26-12.35,17.97,.01,.99-.47,1.92-1.28,2.48-6.38,4.39-8.45-4.47-7.56-8.47,1.17-5.31,3.44-10.11,6.81-14.4,3.7-4.72,9.8-6.07,15.17-6.93,14.82-2.35,25.27,8.33,30.35,20.73,.54,1.31,.24,2.85-.84,3.77Z"/>
  <path class="cls-2" d="M361.39,331.09c.18-.35-2.17-5.13-5.92-12.48l5.92,12.48Z"/>
  <path class="cls-1" d="M354.47,164.84c-2.37,4.81-5.58,8.93-9.63,12.38-.47-.59-.37-1.18,.29-1.79l9.34-10.59Z"/>
  <path class="cls-1" d="M344.84,171.97c.9,.68,.9,1.51,0,2.5v-2.5Z"/>
  <path class="cls-1" d="M34.77,193.24l5.49,4.9s.04,.09,.01,.13c0,0,0,0,0,0l-.18,.2c-.57,.09-1.11,.09-1.64-.01-.33-.07-.63-.23-.86-.46-.65-.65-1.4-.8-2.25-.43-.26,.11-.56,0-.67-.26,0-.01,0-.02-.01-.03-.39-1.09-.35-2.43,.11-4.04Z"/>
</svg>