<?xml version="1.0" encoding="utf-8"?>
<!-- Generator: Adobe Illustrator 27.0.0, SVG Export Plug-In . SVG Version: 6.00 Build 0)  -->
<svg version="1.1" id="Capa_1" xmlns="http://www.w3.org/2000/svg" xmlns:xlink="http://www.w3.org/1999/xlink" x="0px" y="0px"
	 viewBox="0 0 465.6 561.9" style="enable-background:new 0 0 465.6 561.9;" xml:space="preserve">
<style type="text/css">
	.st0{fill:#21ABDE;}
	.st1{fill:#EB1B69;}
	.st2{fill:#FEC013;}
	.st3{fill:#E7236B;}
	.st4{fill:#FCC01A;}
	.st5{fill:#FCC01F;}
	.st6{fill:#1FACE0;}
</style>
<path class="st0" d="M195.4,76.8c-1.6-0.8,1.2-1.5,4.5-2c9.8-1.2,12.8-1.5,19.7-2.5c14.9-0.1,25-26.5,24-39.5c0,0,1.9-7.2,3.2-2
	c1.9,22.9,2.9,42.4,36.8,43.4c2,0.3,13.5,0.2,14.4,3.6c-21.5,3.4-39.3-0.7-47,19.7c-2.7,8.6-3.8,17.1-3.8,28.7c-0.6,8-3-1-2.2-3.5
	c-1.9-19.5-5.2-40.7-29.1-42.7"/>
<path class="st1" d="M171.4,95.7c1.7-2.3,1.5-15.5,4.6-8.2c-3.4,15.2,17.7,9.9,13.2,12.9c-12.9,1.5-12.4,2.3-14.2,14.7
	c-0.1,0.7-0.4,0.8-0.7,0.1c-2-8.8-1.6-12.5-12.4-15.8C158,96.4,170.6,99.2,171.4,95.7z"/>
<path class="st2" d="M281.8,138.8c1.9-18.7,2.2-19.7,6.5-0.9c2.2,7.8,13.2,5.3,18.1,8.8c-4.3,4.4-16.8,2.7-18.7,11.8
	c-2.3,11.8-4.8,17.4-5.2,0.3c-3.1-11.9-17.4-9.1-20.8-11.8C262.4,143.4,282.4,145.6,281.8,138.8L281.8,138.8z"/>
<path class="st2" d="M32.4,330.2c-10.4-2.3-53.4-5.7-19.8-11.9c44.9-12.6,86.4-35.3,124.6-62.8c42-28.9,67.9-75.3,82.1-124
	c7.7,17.3-0.8,46.2-3,66.7c-6.9,33.3-22.6,62.9-29.4,95.6s11.4,222.1-6.3,195.9c-16.4-24.2-14.6-56.7-28.6-82.4
	c-23.3-14.1-28.8,6.6-41.7,36.7c-53.8,125.7-27.1,3.9-14.2-47.8c6.6-26.2,10.7-51.4,12.2-78.9c0.1-4.9-14.7,3.3-18.7,4.5
	C67.9,328.6,50.7,331.6,32.4,330.2L32.4,330.2z"/>
<path class="st1" d="M248.1,261.4c-4-18-7.6-42.8-4.4-63.1c11,22,17.5,48.9,32.6,70.3c43,61.9,116.2,101.2,189.3,119.3
	c-28.7,18.8-78.6,4.1-109.1-5.6c-9,52.2,98.8,291.5-8.8,116.6c-21.5-42.9-36.9-35.3-49,7c-5.5,15.2-32.5,81.9-32.9,39.3
	c-0.4-59.8,7-90,12.4-133.3C288.5,358.2,260.1,311.2,248.1,261.4L248.1,261.4z"/>
<path class="st1" d="M315.9,118.3c1.7-2.3,1.5-15.5,4.6-8.2c-3.4,15.2,17.5,9.8,13.2,12.9c-12.6,1.4-12.5,2.6-14.2,14.7
	c-0.1,0.7-0.4,0.8-0.7,0.1c-1.9-8.6-1.8-12.7-12.4-15.8C302.5,119,315.1,121.9,315.9,118.3z"/>
<g>
	<path class="st3" d="M207.6,133.6c-0.9,2.5-3.9,4-6.5,4.1c-5.3,0.2-9.7-5.9-10.9-11c-1.7-7,2.3-13.8,3.1-13.6c0.5,0.1-0.4,2.5,1,5
		c1.6,3,4.5,2.6,8.1,5.3C205.2,125.6,208.9,130.1,207.6,133.6z"/>
	<path class="st3" d="M207.9,142.7c1.9-0.8,3.8-1.5,5.6-2.5c-0.8-0.8-4.4-3.4-4.4-3.4c-1.4,1.1-4.1,3.1-5.5,3.6
		c-0.1,0,0.7,2.3,1.1,3.7C205.8,143.7,206.8,143.2,207.9,142.7z"/>
	<path class="st3" d="M236.4,180c-0.6-2.5-2.9-7.8-5.9-12.3c-8.2-12.2-7.3-14.9-16.3-26.7c-2.1,1.2-4.5,2.1-6.7,3
		c-0.8,0.3-1.5,0.7-2.3,1c0,0.1,0,0.1,0.1,0.1c0.7,1.6,7.9,10.7,8.1,10.8c2.8,3.5,8.8,10.1,13.1,15.1
		C229.3,174.5,236.8,181.5,236.4,180z"/>
</g>
<g>
	<path class="st4" d="M268,197.6c-2.6-0.2-4.9-2.7-5.6-5.2c-1.6-5.1,3.2-10.9,7.8-13.4c6.4-3.5,13.9-1.4,13.9-0.6
		c0,0.5-2.5,0.3-4.5,2.2c-2.5,2.4-1.3,5.1-3,9.2C275.2,193.1,271.8,197.8,268,197.6z"/>
	<path class="st4" d="M259.3,200.2c1.3,1.6,2.5,3.3,3.9,4.8c0.6-1,2.1-5.1,2.1-5.1c-1.5-1.1-4.1-3.2-4.9-4.4c0-0.1-2,1.2-3.3,2.1
		C257.9,198.4,258.6,199.3,259.3,200.2z"/>
	<path class="st4" d="M230.8,237.5c2.2-1.3,6.7-4.8,10.3-8.9c9.6-11.1,12.4-10.9,21.5-22.7c-1.7-1.8-3.2-3.8-4.7-5.7
		c-0.5-0.7-1.1-1.3-1.6-2c0,0-0.1,0.1-0.1,0.1c-1.4,1.1-8.2,10.5-8.4,10.6c-2.6,3.6-7.5,11.1-11.1,16.6
		C234.2,229.2,229.4,238.2,230.8,237.5z"/>
</g>
<path class="st5" d="M102.3,239.4c-17.2-12.9-17.1-40.2,0.6-52.7c9.7-6.9,18-11.9,24.7-20.7c1.9-3.7,3.7-2.6,5.9,0.1
	c3.5,5,2.5,10.4,1.7,16c9,5.5,17.8,13.4,19.8,24.7C161.4,236.1,125,258.1,102.3,239.4L102.3,239.4z"/>
<path class="st1" d="M407.2,273.6c-8.6,27.9-41.2,27.9-63.2,32c-21.3,4.4-44.2-10.3-43.4-36.6c-0.7-13.7,9.8-19.1,9.5-28.1
	c-5.3-8.1,0.2-14.4,6.9-17.7c5.2-2.3,10.7-1.2,16.1-1.1c12.5,5,21.3,10.4,28.9,23.9c10.1,18.9,24.7,44.7,43.9,18.5
	C410.3,262.8,407.5,271.2,407.2,273.6L407.2,273.6z"/>
<path class="st6" d="M275.6,45.3c1.7-2.3,1.5-15.5,4.6-8.2c-3.4,15.2,17.7,9.9,13.2,12.9c-12.9,1.5-12.4,2.3-14.2,14.7
	c-0.1,0.7-0.4,0.8-0.7,0.1c-2-8.8-1.6-12.5-12.4-15.8C262.2,46,274.8,48.9,275.6,45.3z"/>
</svg>
