<?xml version="1.0" encoding="UTF-8"?>
<svg id="Capa_1" data-name="Capa 1" xmlns="http://www.w3.org/2000/svg" viewBox="0 0 912.45 875.11">
  <defs>
    <style>
      .cls-1 {
        fill: #fcc01a;
      }

      .cls-2 {
        fill: #eb1b69;
      }

      .cls-3 {
        fill: #fcc01f;
      }
    </style>
  </defs>
  <path class="cls-1" d="M715.2,704.37c-2.48-31.08-25.58-146.93-21.08-174.27,10.78-22.73,36.73,70.96,49.9,74.97"/>
  <path class="cls-2" d="M755.89,735.3c-112.65-126.08-175.32-55.45-148.52,101.42,.77,11.81,8.07,51.32-8.97,23.32-27.02-40.75-38.86-94.03-70.18-130.04-42.5-5.86-43.76,88.86-68.45-4.82-4.8-17.32-8.1-35.42-10.47-53.73-4.46-58.91-.2-115.45,11.12-171.13,2.87-31.34-8.43-59.88-9.41-90.3-12.51-102.85-7.85-211.28,11.25-310.96,4.84-30.5,12.81-58.27,20.56-88.06,2.89-5.98-.07-6.61,6.17-10.9,3.9-.71,5.66,2.16,5.62,6.31-.01,41.05-1.9,83.33,3.91,123.76,3.63,102.2,60.89,227.72,167.03,205.25,44.94-3.13,86.16-28.14,130.81-36.7,36.66-8.34,77.58-12.12,114.12-3.26,8.1,8.86-11.31,10.65-14.2,10.48-29.4,8.34-44.78,10.8-75.31,22.73-50.04,19.48-117.23,60.96-144.31,120.1-5.86,11.63-10.8,22.76-.19,32.99,44.4,25.74,83.91,63.17,110.84,112.66,9.99,21.26-34.12-.28-39.89,21.31-7.66,13.77,2.51,28.1,9.64,39.12,23.93,37.53,42.54,78.28,56.6,121.68,31.33,97.05-35.23-22.17-57.8-41.25Z"/>
  <path class="cls-2" d="M869.57,206.88c-32.31,83.21-131.75,76.17-199.63,83.82-65.77,8.72-132.39-41.07-124.24-120.94,.99-42.05,33.9-56.07,35.14-83.6-14.26-25.91,3.85-43.92,25.03-52.45,16.25-5.83,32.95-1.45,49.22-.01,36.94,17.96,62.81,36.35,82.9,79.1,26.63,59.88,65.66,141.56,129.91,65.9,13.59-4.27,3.2,20.95,1.67,28.18Z"/>
  <path class="cls-3" d="M168.26,742.58c-34.24,19.6-56.85,71.82-87.49,86.48,14.26-78.8,67.59-147.62,124.84-201.46,34.78-54.94-15.77-119.18-66.12-146.52-42.18-27.42-93.2-35.92-139.49-47.89,16.44-21.15,73.48-6.35,100.34-5.59,51.75,8.26,101.09,39.04,155.17,29.47,165.56-19.85,77.3-398.43,128.48-221.81,62,215.61,7.03,452.59-115.15,639.25-15.23,6.28,1.67-38.41-.43-46.62,14.42-77.45-19.86-149.32-100.15-85.31Z"/>
  <path class="cls-3" d="M173.17,422.38c-48.11-36.14-47.89-112.61,1.81-147.71,27.14-19.39,50.51-33.37,69.26-58.08,5.39-10.29,10.25-7.19,16.51,.36,9.74,14.11,6.92,29.22,4.67,44.75,25.24,15.41,49.82,37.45,55.45,69.08,17.99,82.15-84.16,143.92-147.71,91.6Z"/>
</svg>