<?xml version="1.0" encoding="UTF-8" standalone="no"?>
<!DOCTYPE svg PUBLIC "-//W3C//DTD SVG 1.1//EN" "http://www.w3.org/Graphics/SVG/1.1/DTD/svg11.dtd">
<svg xmlns="http://www.w3.org/2000/svg" version="1.1" viewBox="0 0 740 740">
<g stroke-width="2.00" fill="none" stroke-linecap="butt">
<path stroke="#4999d0" vector-effect="non-scaling-stroke" d="
  M 466.96 427.25
  Q 466.60 427.07 465.98 426.00
  C 453.01 403.71 424.21 397.66 403.00 412.21"
/>
<path stroke="#c956b7" vector-effect="non-scaling-stroke" d="
  M 403.00 412.21
  L 403.00 411.73
  A 0.97 0.95 18.6 0 0 402.61 410.96
  Q 388.57 400.50 377.75 386.71"
/>
<path stroke="#c9b4ff" vector-effect="non-scaling-stroke" d="
  M 377.75 386.71
  Q 366.94 371.25 361.96 353.00"
/>
<path stroke="#c956b7" vector-effect="non-scaling-stroke" d="
  M 361.96 353.00
  C 361.90 347.67 360.10 342.87 359.93 337.92
  C 359.41 322.90 360.13 312.80 363.02 302.75
  Q 366.98 288.95 374.45 276.79
  C 377.44 271.93 381.58 266.89 385.29 262.00"
/>
<path stroke="#ffa1b7" vector-effect="non-scaling-stroke" d="
  M 361.96 353.00
  Q 351.39 354.65 346.81 362.70
  C 341.81 371.48 344.12 382.85 352.57 388.67
  C 361.29 394.68 369.24 392.31 377.75 386.71"
/>
<path stroke="#808687" vector-effect="non-scaling-stroke" d="
  M 403.00 412.21
  C 386.52 425.07 379.57 447.68 389.64 467.14
  Q 392.08 471.86 395.28 475.67"
/>
<path stroke="#ffa1b7" vector-effect="non-scaling-stroke" d="
  M 225.75 468.96
  Q 225.14 468.00 224.13 467.50
  Q 223.62 467.25 223.68 467.82
  Q 223.80 468.86 225.00 469.04"
/>
<path stroke="#c9b4ff" vector-effect="non-scaling-stroke" d="
  M 436.37 329.07
  A 14.47 14.47 0.0 0 0 421.90 314.60
  A 14.47 14.47 0.0 0 0 407.43 329.07
  A 14.47 14.47 0.0 0 0 421.90 343.54
  A 14.47 14.47 0.0 0 0 436.37 329.07"
/>
<path stroke="#c9b4ff" vector-effect="non-scaling-stroke" d="
  M 472.80 329.05
  A 14.47 14.47 0.0 0 0 458.33 314.58
  A 14.47 14.47 0.0 0 0 443.86 329.05
  A 14.47 14.47 0.0 0 0 458.33 343.52
  A 14.47 14.47 0.0 0 0 472.80 329.05"
/>
<path stroke="#c9b4ff" vector-effect="non-scaling-stroke" d="
  M 509.32 329.08
  A 14.47 14.47 0.0 0 0 494.85 314.61
  A 14.47 14.47 0.0 0 0 480.38 329.08
  A 14.47 14.47 0.0 0 0 494.85 343.55
  A 14.47 14.47 0.0 0 0 509.32 329.08"
/>
<path stroke="#ffa1b7" vector-effect="non-scaling-stroke" d="
  M 334.81 372.50
  A 19.56 19.56 0.0 0 0 315.25 352.94
  A 19.56 19.56 0.0 0 0 295.69 372.50
  A 19.56 19.56 0.0 0 0 315.25 392.06
  A 19.56 19.56 0.0 0 0 334.81 372.50"
/>
<path stroke="#ffa1b7" vector-effect="non-scaling-stroke" d="
  M 286.27 372.52
  A 19.56 19.56 0.0 0 0 266.71 352.96
  A 19.56 19.56 0.0 0 0 247.15 372.52
  A 19.56 19.56 0.0 0 0 266.71 392.08
  A 19.56 19.56 0.0 0 0 286.27 372.52"
/>
<path stroke="#80e4d0" vector-effect="non-scaling-stroke" d="
  M 418.11 447.86
  A 5.83 5.83 0.0 0 0 412.28 442.03
  A 5.83 5.83 0.0 0 0 406.45 447.86
  A 5.83 5.83 0.0 0 0 412.28 453.69
  A 5.83 5.83 0.0 0 0 418.11 447.86"
/>
<path stroke="#80e4d0" vector-effect="non-scaling-stroke" d="
  M 434.09 447.90
  A 5.84 5.84 0.0 0 0 428.25 442.06
  A 5.84 5.84 0.0 0 0 422.41 447.90
  A 5.84 5.84 0.0 0 0 428.25 453.74
  A 5.84 5.84 0.0 0 0 434.09 447.90"
/>
<path stroke="#80e4d0" vector-effect="non-scaling-stroke" d="
  M 450.00 447.92
  A 5.80 5.80 0.0 0 0 444.20 442.12
  A 5.80 5.80 0.0 0 0 438.40 447.92
  A 5.80 5.80 0.0 0 0 444.20 453.72
  A 5.80 5.80 0.0 0 0 450.00 447.92"
/>
</g>
<path fill="#9269ff" d="
  M 466.96 427.25
  Q 466.60 427.07 465.98 426.00
  C 453.01 403.71 424.21 397.66 403.00 412.21
  L 403.00 411.73
  A 0.97 0.95 18.6 0 0 402.61 410.96
  Q 388.57 400.50 377.75 386.71
  Q 366.94 371.25 361.96 353.00
  C 361.90 347.67 360.10 342.87 359.93 337.92
  C 359.41 322.90 360.13 312.80 363.02 302.75
  Q 366.98 288.95 374.45 276.79
  C 377.44 271.93 381.58 266.89 385.29 262.00
  Q 386.38 262.17 386.76 261.77
  C 405.73 242.00 431.14 230.77 458.50 230.80
  C 528.84 230.90 574.99 301.70 549.19 366.45
  C 546.91 372.16 542.19 379.57 540.91 385.93
  C 537.72 401.90 548.05 419.38 558.63 430.58
  Q 558.97 430.95 558.47 430.97
  C 542.07 431.72 523.36 429.57 507.97 422.31
  A 0.91 0.91 0.0 0 1 507.78 420.78
  C 508.79 419.96 521.74 408.74 518.73 407.95
  A 2.82 2.82 0.0 0 0 516.37 408.38
  Q 499.83 420.12 480.62 424.71
  C 476.71 425.64 471.52 426.22 466.96 427.25
  Z
  M 436.37 329.07
  A 14.47 14.47 0.0 0 0 421.90 314.60
  A 14.47 14.47 0.0 0 0 407.43 329.07
  A 14.47 14.47 0.0 0 0 421.90 343.54
  A 14.47 14.47 0.0 0 0 436.37 329.07
  Z
  M 472.80 329.05
  A 14.47 14.47 0.0 0 0 458.33 314.58
  A 14.47 14.47 0.0 0 0 443.86 329.05
  A 14.47 14.47 0.0 0 0 458.33 343.52
  A 14.47 14.47 0.0 0 0 472.80 329.05
  Z
  M 509.32 329.08
  A 14.47 14.47 0.0 0 0 494.85 314.61
  A 14.47 14.47 0.0 0 0 480.38 329.08
  A 14.47 14.47 0.0 0 0 494.85 343.55
  A 14.47 14.47 0.0 0 0 509.32 329.08
  Z"
/>
<path fill="#ff436e" d="
  M 385.29 262.00
  C 381.58 266.89 377.44 271.93 374.45 276.79
  Q 366.98 288.95 363.02 302.75
  C 360.13 312.80 359.41 322.90 359.93 337.92
  C 360.10 342.87 361.90 347.67 361.96 353.00
  Q 351.39 354.65 346.81 362.70
  C 341.81 371.48 344.12 382.85 352.57 388.67
  C 361.29 394.68 369.24 392.31 377.75 386.71
  Q 388.57 400.50 402.61 410.96
  A 0.97 0.95 18.6 0 1 403.00 411.73
  L 403.00 412.21
  C 386.52 425.07 379.57 447.68 389.64 467.14
  Q 392.08 471.86 395.28 475.67
  Q 394.24 477.03 393.70 477.42
  C 342.44 514.87 273.92 511.62 226.61 469.14
  Q 226.40 468.95 225.75 468.96
  Q 225.14 468.00 224.13 467.50
  Q 223.62 467.25 223.68 467.82
  Q 223.80 468.86 225.00 469.04
  C 224.22 475.50 243.40 492.71 248.62 496.61
  A 0.30 0.30 0.0 0 1 248.57 497.12
  C 234.40 503.88 218.49 506.95 202.83 508.06
  C 197.11 508.47 188.68 509.38 181.41 508.86
  Q 180.96 508.83 181.25 508.48
  C 191.61 495.87 201.08 482.87 204.78 467.26
  Q 208.11 453.18 203.53 441.99
  C 201.47 436.96 197.01 429.14 194.59 423.35
  C 159.39 339.39 218.83 245.22 309.80 241.80
  Q 350.83 240.26 385.29 262.00
  Z
  M 334.81 372.50
  A 19.56 19.56 0.0 0 0 315.25 352.94
  A 19.56 19.56 0.0 0 0 295.69 372.50
  A 19.56 19.56 0.0 0 0 315.25 392.06
  A 19.56 19.56 0.0 0 0 334.81 372.50
  Z
  M 286.27 372.52
  A 19.56 19.56 0.0 0 0 266.71 352.96
  A 19.56 19.56 0.0 0 0 247.15 372.52
  A 19.56 19.56 0.0 0 0 266.71 392.08
  A 19.56 19.56 0.0 0 0 286.27 372.52
  Z"
/>
<circle fill="#ffffff" cx="421.90" cy="329.07" r="14.47"/>
<circle fill="#ffffff" cx="458.33" cy="329.05" r="14.47"/>
<circle fill="#ffffff" cx="494.85" cy="329.08" r="14.47"/>
<circle fill="#ffffff" cx="315.25" cy="372.50" r="19.56"/>
<circle fill="#ffffff" cx="266.71" cy="372.52" r="19.56"/>
<path fill="#ffffff" d="
  M 361.96 353.00
  Q 366.94 371.25 377.75 386.71
  C 369.24 392.31 361.29 394.68 352.57 388.67
  C 344.12 382.85 341.81 371.48 346.81 362.70
  Q 351.39 354.65 361.96 353.00
  Z"
/>
<path fill="#00c8a0" d="
  M 466.96 427.25
  L 467.02 428.25
  Q 467.05 428.74 467.24 429.18
  C 473.42 443.20 472.10 456.86 465.34 470.34
  C 461.62 477.76 467.03 485.14 471.47 491.54
  A 0.30 0.30 0.0 0 1 471.25 492.01
  Q 461.82 493.11 453.11 489.87
  C 451.70 489.35 449.48 488.83 449.85 486.92
  Q 450.19 485.20 448.57 485.90
  Q 417.88 499.31 395.28 475.67
  Q 392.08 471.86 389.64 467.14
  C 379.57 447.68 386.52 425.07 403.00 412.21
  C 424.21 397.66 453.01 403.71 465.98 426.00
  Q 466.60 427.07 466.96 427.25
  Z
  M 418.11 447.86
  A 5.83 5.83 0.0 0 0 412.28 442.03
  A 5.83 5.83 0.0 0 0 406.45 447.86
  A 5.83 5.83 0.0 0 0 412.28 453.69
  A 5.83 5.83 0.0 0 0 418.11 447.86
  Z
  M 434.09 447.90
  A 5.84 5.84 0.0 0 0 428.25 442.06
  A 5.84 5.84 0.0 0 0 422.41 447.90
  A 5.84 5.84 0.0 0 0 428.25 453.74
  A 5.84 5.84 0.0 0 0 434.09 447.90
  Z
  M 450.00 447.92
  A 5.80 5.80 0.0 0 0 444.20 442.12
  A 5.80 5.80 0.0 0 0 438.40 447.92
  A 5.80 5.80 0.0 0 0 444.20 453.72
  A 5.80 5.80 0.0 0 0 450.00 447.92
  Z"
/>
<circle fill="#ffffff" cx="412.28" cy="447.86" r="5.83"/>
<circle fill="#ffffff" cx="428.25" cy="447.90" r="5.84"/>
<circle fill="#ffffff" cx="444.20" cy="447.92" r="5.80"/>
<path fill="#ffffff" d="
  M 225.75 468.96
  L 225.00 469.04
  Q 223.80 468.86 223.68 467.82
  Q 223.62 467.25 224.13 467.50
  Q 225.14 468.00 225.75 468.96
  Z"
/>
</svg>
