<?xml version="1.0" encoding="UTF-8"?>
<svg id="Capa_1" data-name="Capa 1" xmlns="http://www.w3.org/2000/svg" viewBox="0 0 342.18 298.32">
  <defs>
    <style>
      .cls-1 {
        fill: #eb1b69;
      }

      .cls-2 {
        fill: #fcc01f;
      }

      .cls-3 {
        fill: #fec013;
      }
    </style>
  </defs>
  <path class="cls-1" d="M222.35,70.29c-8.98-2.97-17.58-6.85-25.79-11.63,44.27-78.39,47.24-81.81,25.79,11.63Z"/>
  <path class="cls-1" d="M182.02,85.91c15.64,16.51,23.4,40.37,28.1,61.9-3.53,6.97-21.98,13.91-30.03,18.62-39.8,25.37-44.47,80.52-64.87,120.01-7.12,16.2-13.44,10.85-33.59,11.65-11.95-3.19,13.33-12.95,15.7-15.88,8.83-5.59,8.96-11.9,9.26-21.52,3.11-58.31,4.37-87.23-38.08-121.86C2.22,77.95,18.38,87.64,90.15,110.73c33.37,12.54,70.19,2.01,91.87-24.82Z"/>
  <path class="cls-1" d="M264.58,136.76c6.49,4.79,75,32.24,44.94,34.54-18.1-6.45-45.49-2.92-47.18-22.71-2.12-4.59,3.36-7.18,2.24-11.83Z"/>
  <ellipse class="cls-1" cx="59.93" cy="197.2" rx="30.28" ry="28.68" transform="translate(-137.38 256.79) rotate(-89.9)"/>
  <path class="cls-3" d="M199.33,55c46.36,23.97,93.12,50.22,140.44,75.47,2.94,1.09,3.53,6.55-.14,6.61-23.32,3.21-64.36-11.95-62.53,24.73-.17,49.6,59.09,104.7,57.04,136.51-39.24-1.62-65.72-105.44-114.22-65.32-84.01,94.85-92.92,83.65-28.84-22.44C239.98,129.72,155.54,62.87,102.57,11.78c9.45-12.75,76.28,37.88,96.76,43.22Z"/>
  <path class="cls-1" d="M4.79,159.92c19.84-16.14,44.31-.06,62.79,7.79,18.1,7.29,28.23,29.32,15,48.13-6.05,10.35-16.52,9.12-20.62,15.84,.09,8.53-7.06,10.42-13.67,9.53-5.01-.88-8.61-4.4-12.61-7.14-6.98-9.82-10.99-18.1-10.22-31.71,1.49-18.78,2.92-44.83-24.07-35.16-4.12-.93,2.01-5.68,3.39-7.29h0Z"/>
  <path class="cls-2" d="M243.83,66.08c-11.45-17.3-2.51-42.07,17.62-47.7,11.05-3.13,20.21-4.98,29.15-10.81,2.93-2.75,4.21-1.16,5.33,2,1.56,5.68-1.1,10.26-3.64,15.09,6.4,7.91,11.83,17.95,9.99,28.86-3.68,28.7-43.89,36.9-58.46,12.55h0Z"/>
</svg>