<?xml version="1.0" encoding="UTF-8"?>
<svg id="Capa_1" data-name="Capa 1" xmlns="http://www.w3.org/2000/svg" viewBox="0 0 238.52 359.17">
  <defs>
    <style>
      .cls-1 {
        fill: #eb1b69;
      }

      .cls-2 {
        fill: #fec013;
      }
    </style>
  </defs>
  <path class="cls-1" d="M110.38,64.73c-.42,5.18,.7,10.79,.31,15.12-1.28,14.17-11.55,26.61-25.19,30.28-27.15,7.3-51.08-18.51-41.79-44.7,1.57-4.44,4.46-9.06,7.18-13.17,.33-.47,.17-1.14-.33-1.43-7.28-4.17-14.18-8.89-20.71-14.16-.65-.53-.56-.79,.28-.79h61.57c1.45,0,2.77,.41,3.97,1.22,0,0,37.91,25.78,37.91,25.78,.6,.41,.54,.68-.17,.82l-7.09,1.36c-.38,.07-.65,.41-.63,.79,0,0,1.03,31.91,1.03,31.91,.37,2.16,2.59,1.2,4.07,.07,12.1-8.98,23.82-17.82,37.38-24.59,.86-.43,1.51-.62,1.96-.58,.67,.05,.79,.34,.38,.87-39.92,50.42-61.8,109.46-66.31,172.91-.61,8.65-.73,22.3-.34,40.94,.48,23.72,4.52,47.78,10.47,70.52C6.39,286.27-26.56,118.36,21.62,0c.7,37.08-.53,50.6,6.53,85.36,11.58,56.13,50.23,59.08,89.24,23.41,1.16-1.02,1.77-2.3,1.84-3.84l1.8-38.9c.05-1-.76-1.85-1.77-1.85,0,0-8.28-.01-8.28-.01-.32,0-.58,.24-.6,.56Z"/>
  <path class="cls-2" d="M149.99,165.35c.04-.71-.5-1.31-1.2-1.36l-4.35-.3c-1.55-.11-1.68-.61-.4-1.49l29.14-20.16c.27-.19,.59-.29,.92-.28l48.04,.17c.15,0,.29,.06,.4,.16l.27,.24c.15,.13,.16,.35,.03,.5-.02,.02-.04,.04-.07,.06l-19.02,12.72c-.36,.24-.45,.72-.22,1.08,.02,.03,.05,.06,.08,.09,6.81,7.25,9.07,15.09,6.78,23.5-8.82,32.38-56.3,16.1-43.83-15,.21-.52-.04-1.12-.57-1.33-.12-.05-.25-.07-.38-.07h-11.01c-.44,0-.8,.36-.8,.81h0c.06,6.39,.3,12.42,.72,18.11,.29,3.88-.35,5.6,2.56,8.83,9.18,10.19,25.33,25.57,39.97,22.55,25.1-5.17,33.48-65.18,34.88-85.74,.01-.19,.09-.37,.23-.51l.22-.22c.39-.39,.64-.32,.76,.22,11.06,50.87,4.92,102.21-17.12,148.71-15.24,32.18-40.39,61.91-71.28,80.21-1.69,1-3.37,1.75-5.02,2.25-.65,.2-.86-.02-.63-.66,1.5-4.18,2.96-8.36,4.38-12.53,20.21-59.46,14.86-126.74-17.88-181.08-.13-.22-.1-.51,.09-.68l.21-.2c.16-.16,.41-.18,.6-.05,6.7,4.45,12.83,9.6,18.4,15.44,.95,1,1.99,1.85,3.1,2.54,.31,.19,.73,.1,.92-.21,.06-.09,.09-.2,.1-.31l.98-16.01Z"/>
</svg>